<svg width="549" height="179" viewBox="0 0 549 179" fill="none" xmlns="http://www.w3.org/2000/svg">
<path d="M39.7077 106.89C21.0925 114.908 13.4555 140.631 2 157V179H549V43.7511C544.227 43.7511 526.089 28.217 509.383 35.2323C492.677 42.2477 487.904 124.428 459.265 127.435C430.627 130.442 417.262 46.7577 382.418 49.7643C347.574 52.7709 356.166 130.184 323.709 132.947C291.251 135.71 264.045 -3.3524 235.406 2.15966C206.767 7.67172 205.812 69.8084 189.584 79.3293C173.355 88.8502 158.558 65.7996 141.853 70.3095C125.147 74.8194 118.464 124.428 101.281 126.433C84.0977 128.437 58.3229 98.8723 39.7077 106.89Z" fill="url(#paint0_linear_78_730)" fill-opacity="0.5"/>
<path d="M2 157C13.4555 140.631 21.0925 114.908 39.7077 106.89C58.3229 98.8723 84.0977 128.437 101.281 126.433C118.464 124.428 125.147 74.8194 141.853 70.3095C158.558 65.7996 173.355 88.8502 189.584 79.3293C205.812 69.8084 206.767 7.67172 235.406 2.15966C264.044 -3.3524 291.251 135.71 323.709 132.947C356.166 130.184 347.574 52.7709 382.418 49.7643C417.262 46.7577 430.627 130.442 459.265 127.435C487.904 124.428 492.677 42.2477 509.383 35.2324C526.089 28.217 544.227 43.7511 549 43.7511" stroke="#1814F3" stroke-width="3"/>
<defs>
<linearGradient id="paint0_linear_78_730" x1="275.5" y1="2" x2="275.5" y2="179" gradientUnits="userSpaceOnUse">
<stop stop-color="#2D60FF" stop-opacity="0.5"/>
<stop offset="1" stop-color="#2D60FF" stop-opacity="0"/>
</linearGradient>
</defs>
</svg>
